<svg xmlns:dc="http://purl.org/dc/elements/1.1/" xmlns:cc="http://creativecommons.org/ns#" xmlns:rdf="http://www.w3.org/1999/02/22-rdf-syntax-ns#" xmlns:svg="http://www.w3.org/2000/svg" xmlns="http://www.w3.org/2000/svg" version="1.1" viewBox="0 0 100 100" x="0px" y="0px"><g style="" transform="translate(0,-952.36216)" display="inline"><path transform="translate(0,952.36216)" d="M 28.748047 9.984375 C 21.240546 10.139248 13.426488 13.432131 8.1875 22.21875 C -5.3888722 44.98849 22.089711 73.321931 50.361328 89.644531 C 80.894903 72.015931 104.42006 46.252733 92.28125 22.976562 C 81.618639 2.530993 53.893998 10.698999 50.056641 19.943359 C 47.5466 14.773472 38.400548 9.785253 28.748047 9.984375 z M 34.007812 19.804688 C 41.280388 19.654661 48.169383 23.411441 50.060547 27.306641 C 52.951763 20.341571 73.841369 14.187297 81.875 29.591797 C 91.020856 47.128977 73.296215 66.542119 50.291016 79.824219 C 28.990066 67.526119 8.286651 46.177104 18.515625 29.021484 C 22.462885 22.4013 28.351366 19.921374 34.007812 19.804688 z M 38.357422 27.925781 C 34.232143 28.010882 29.937353 29.822254 27.058594 34.650391 C 19.598544 47.162081 34.697516 62.730219 50.232422 71.699219 C 67.010246 62.012619 79.937704 47.856376 73.267578 35.066406 C 67.408605 23.831806 52.173033 28.318778 50.064453 33.398438 C 48.685216 30.557644 43.661352 27.816366 38.357422 27.925781 z " style="color:#000000;clip-rule:nonzero;display:inline;overflow:visible;visibility:visible;opacity:1;isolation:auto;mix-blend-mode:normal;color-interpolation:sRGB;color-interpolation-filters:linearRGB;solid-color:#000000;solid-opacity:1;fill:#000000;fill-opacity:1;fill-rule:nonzero;stroke:none;stroke-width:1;stroke-linecap:butt;stroke-linejoin:miter;stroke-miterlimit:4;stroke-dasharray:none;stroke-dashoffset:0;stroke-opacity:1;color-rendering:auto;image-rendering:auto;shape-rendering:auto;text-rendering:auto;enable-background:accumulate"></path></g><g style="" display="none"><path d="M 81.875334,29.59255 C 91.02119,47.12973 73.295788,66.54194 50.290589,79.82404 28.989639,67.52594 8.2865991,46.17734 18.515573,29.02172 c 9.022308,-15.13185 28.183269,-8.6391 31.545338,-1.7143 2.891216,-6.96507 23.780792,-13.11937 31.814423,2.28513 z" style="color:#000000;clip-rule:nonzero;display:inline;overflow:visible;visibility:visible;opacity:1;isolation:auto;mix-blend-mode:normal;color-interpolation:sRGB;color-interpolation-filters:linearRGB;solid-color:#000000;solid-opacity:1;fill:#000000;fill-opacity:1;fill-rule:nonzero;stroke:none;stroke-width:1;stroke-linecap:butt;stroke-linejoin:miter;stroke-miterlimit:4;stroke-dasharray:none;stroke-dashoffset:0;stroke-opacity:1;color-rendering:auto;image-rendering:auto;shape-rendering:auto;text-rendering:auto;enable-background:accumulate"></path></g></svg>